<svg width="535" height="14" viewBox="0 0 535 14" fill="none" xmlns="http://www.w3.org/2000/svg">
<path d="M10.278 13.18L8.874 9.58H3.042L1.638 13.144L0.18 12.55L5.112 0.399999H6.984L11.844 12.55L10.278 13.18ZM3.582 8.14H8.316L5.958 2.092L3.582 8.14ZM34.1719 13.216C33.2959 13.216 32.4979 13.102 31.7779 12.874C31.0579 12.634 30.4519 12.322 29.9599 11.938L30.8239 10.498C31.2559 10.858 31.7419 11.152 32.2819 11.38C32.8219 11.608 33.4519 11.722 34.1719 11.722C35.0359 11.722 35.7199 11.542 36.2239 11.182C36.7279 10.822 36.9799 10.336 36.9799 9.724C36.9799 9.376 36.9079 9.07 36.7639 8.806C36.6199 8.53 36.3379 8.266 35.9179 8.014C35.5099 7.75 34.9039 7.468 34.0999 7.168C33.2359 6.832 32.5459 6.496 32.0299 6.16C31.5139 5.812 31.1419 5.422 30.9139 4.99C30.6979 4.546 30.5899 4.024 30.5899 3.424C30.5899 2.824 30.7519 2.284 31.0759 1.804C31.4119 1.312 31.8979 0.921999 32.5339 0.633999C33.1819 0.334 33.9619 0.184 34.8739 0.184C35.6179 0.184 36.2839 0.261999 36.8719 0.417999C37.4719 0.561999 38.0539 0.771999 38.6179 1.048L37.9879 2.506C37.5799 2.266 37.0999 2.068 36.5479 1.912C36.0079 1.744 35.4379 1.66 34.8379 1.66C34.0459 1.66 33.4219 1.816 32.9659 2.128C32.5099 2.44 32.2819 2.842 32.2819 3.334C32.2819 3.646 32.3479 3.922 32.4799 4.162C32.6119 4.402 32.8699 4.636 33.2539 4.864C33.6499 5.092 34.2379 5.35 35.0179 5.638C35.9539 5.986 36.6919 6.352 37.2319 6.736C37.7839 7.12 38.1739 7.54 38.4019 7.996C38.6299 8.44 38.7439 8.95 38.7439 9.526C38.7439 10.306 38.5459 10.972 38.1499 11.524C37.7659 12.076 37.2259 12.496 36.5299 12.784C35.8459 13.072 35.0599 13.216 34.1719 13.216ZM47.2704 13V0.399999H49.6644L53.1564 8.374L56.5944 0.399999H59.0424V13H57.3324V2.578L53.9664 10.156H52.2744L48.8904 2.578V13H47.2704ZM76.9401 13.18L75.5361 9.58H69.7041L68.3001 13.144L66.8421 12.55L71.7741 0.399999H73.6461L78.5061 12.55L76.9401 13.18ZM70.2441 8.14H74.9781L72.6201 2.092L70.2441 8.14ZM86.3055 13V0.399999H88.0155V11.47H93.7935V13H86.3055ZM101.499 13V0.399999H103.209V11.47H108.987V13H101.499ZM130.519 13V1.912H126.649V0.399999H136.099V1.912H132.229V13H130.519ZM148.572 13.216C147.636 13.216 146.802 13.048 146.07 12.712C145.338 12.364 144.714 11.896 144.198 11.308C143.694 10.708 143.304 10.012 143.028 9.22C142.764 8.428 142.632 7.582 142.632 6.682C142.632 5.446 142.866 4.342 143.334 3.37C143.814 2.386 144.498 1.612 145.386 1.048C146.274 0.472 147.336 0.184 148.572 0.184C149.496 0.184 150.324 0.352 151.056 0.688C151.8 1.024 152.43 1.492 152.946 2.092C153.462 2.692 153.852 3.382 154.116 4.162C154.392 4.942 154.53 5.782 154.53 6.682C154.53 7.582 154.392 8.428 154.116 9.22C153.852 10.012 153.462 10.708 152.946 11.308C152.43 11.896 151.806 12.364 151.074 12.712C150.342 13.048 149.508 13.216 148.572 13.216ZM148.572 11.74C149.496 11.74 150.27 11.518 150.894 11.074C151.518 10.63 151.986 10.03 152.298 9.274C152.622 8.506 152.784 7.642 152.784 6.682C152.784 6.034 152.688 5.41 152.496 4.81C152.304 4.21 152.028 3.676 151.668 3.208C151.308 2.728 150.864 2.35 150.336 2.074C149.82 1.798 149.232 1.66 148.572 1.66C147.696 1.66 146.94 1.882 146.304 2.326C145.68 2.77 145.2 3.37 144.864 4.126C144.54 4.882 144.378 5.734 144.378 6.682C144.378 7.33 144.468 7.96 144.648 8.572C144.84 9.172 145.116 9.712 145.476 10.192C145.836 10.672 146.274 11.05 146.79 11.326C147.318 11.602 147.912 11.74 148.572 11.74ZM164.764 13L161.344 0.813999L163.036 0.274L165.88 11.182L168.562 1.714H170.704L173.368 11.182L176.194 0.327999L177.778 0.813999L174.376 13H172.252L169.588 3.532L166.888 13H164.764ZM185.675 13V0.399999H187.943L193.505 10.876V0.399999H195.125V13H192.893L187.295 2.596V13H185.675ZM219.399 13.144C218.667 13.144 217.971 13.126 217.311 13.09C216.663 13.054 216.147 13.012 215.763 12.964V0.436C216.183 0.388 216.705 0.345999 217.329 0.309999C217.953 0.274 218.667 0.256 219.471 0.256C221.007 0.256 222.189 0.55 223.017 1.138C223.845 1.714 224.259 2.5 224.259 3.496C224.259 4.156 224.079 4.72 223.719 5.188C223.371 5.644 222.861 6.022 222.189 6.322C223.005 6.61 223.623 7.012 224.043 7.528C224.463 8.032 224.673 8.656 224.673 9.4C224.673 10.54 224.223 11.452 223.323 12.136C222.423 12.808 221.115 13.144 219.399 13.144ZM217.473 5.836H219.453C220.401 5.836 221.151 5.638 221.703 5.242C222.267 4.846 222.549 4.336 222.549 3.712C222.549 3.04 222.273 2.53 221.721 2.182C221.169 1.822 220.413 1.642 219.453 1.642C219.057 1.642 218.697 1.654 218.373 1.678C218.049 1.69 217.749 1.708 217.473 1.732V5.836ZM219.525 11.722C220.593 11.722 221.427 11.53 222.027 11.146C222.627 10.762 222.927 10.204 222.927 9.472C222.927 8.752 222.633 8.188 222.045 7.78C221.457 7.372 220.617 7.168 219.525 7.168H217.473V11.614C218.109 11.686 218.793 11.722 219.525 11.722ZM233.1 13V0.399999H240.66V1.876H234.81V5.71H239.85V7.15H234.81V11.524H240.66V13H233.1ZM251.515 13V1.912H247.645V0.399999H257.095V1.912H253.225V13H251.515ZM266.963 13L263.543 0.813999L265.235 0.274L268.079 11.182L270.761 1.714H272.903L275.567 11.182L278.393 0.327999L279.977 0.813999L276.575 13H274.451L271.787 3.532L269.087 13H266.963ZM287.874 13V0.399999H295.434V1.876H289.584V5.71H294.624V7.15H289.584V11.524H295.434V13H287.874ZM303.858 13V0.399999H311.418V1.876H305.568V5.71H310.608V7.15H305.568V11.524H311.418V13H303.858ZM319.843 13V0.399999H322.111L327.673 10.876V0.399999H329.293V13H327.061L321.463 2.596V13H319.843ZM353.063 13.216C352.187 13.216 351.389 13.102 350.669 12.874C349.949 12.634 349.343 12.322 348.851 11.938L349.715 10.498C350.147 10.858 350.633 11.152 351.173 11.38C351.713 11.608 352.343 11.722 353.063 11.722C353.927 11.722 354.611 11.542 355.115 11.182C355.619 10.822 355.871 10.336 355.871 9.724C355.871 9.376 355.799 9.07 355.655 8.806C355.511 8.53 355.229 8.266 354.809 8.014C354.401 7.75 353.795 7.468 352.991 7.168C352.127 6.832 351.437 6.496 350.921 6.16C350.405 5.812 350.033 5.422 349.805 4.99C349.589 4.546 349.481 4.024 349.481 3.424C349.481 2.824 349.643 2.284 349.967 1.804C350.303 1.312 350.789 0.921999 351.425 0.633999C352.073 0.334 352.853 0.184 353.765 0.184C354.509 0.184 355.175 0.261999 355.763 0.417999C356.363 0.561999 356.945 0.771999 357.509 1.048L356.879 2.506C356.471 2.266 355.991 2.068 355.439 1.912C354.899 1.744 354.329 1.66 353.729 1.66C352.937 1.66 352.313 1.816 351.857 2.128C351.401 2.44 351.173 2.842 351.173 3.334C351.173 3.646 351.239 3.922 351.371 4.162C351.503 4.402 351.761 4.636 352.145 4.864C352.541 5.092 353.129 5.35 353.909 5.638C354.845 5.986 355.583 6.352 356.123 6.736C356.675 7.12 357.065 7.54 357.293 7.996C357.521 8.44 357.635 8.95 357.635 9.526C357.635 10.306 357.437 10.972 357.041 11.524C356.657 12.076 356.117 12.496 355.421 12.784C354.737 13.072 353.951 13.216 353.063 13.216ZM366.161 13V0.399999H373.721V1.876H367.871V5.71H372.911V7.15H367.871V11.524H373.721V13H366.161ZM390.803 13.18L389.399 9.58H383.567L382.163 13.144L380.705 12.55L385.637 0.399999H387.509L392.369 12.55L390.803 13.18ZM384.107 8.14H388.841L386.483 2.092L384.107 8.14ZM415.525 13.216C414.805 13.216 414.145 13.078 413.545 12.802C412.945 12.514 412.465 12.118 412.105 11.614C411.745 11.098 411.565 10.492 411.565 9.796C411.565 9.04 411.757 8.356 412.141 7.744C412.525 7.132 413.161 6.58 414.049 6.088C413.605 5.596 413.269 5.134 413.041 4.702C412.825 4.27 412.717 3.772 412.717 3.208C412.717 2.632 412.843 2.116 413.095 1.66C413.359 1.204 413.731 0.843999 414.211 0.579999C414.691 0.316 415.255 0.184 415.903 0.184C416.551 0.184 417.097 0.31 417.541 0.561999C417.997 0.802 418.345 1.126 418.585 1.534C418.825 1.942 418.945 2.392 418.945 2.884C418.945 3.652 418.723 4.306 418.279 4.846C417.835 5.386 417.133 5.89 416.173 6.358L419.143 9.184C419.299 8.908 419.413 8.614 419.485 8.302C419.557 7.978 419.623 7.66 419.683 7.348C419.755 7.024 419.857 6.736 419.989 6.484C420.121 6.22 420.319 6.01 420.583 5.854C420.847 5.698 421.207 5.62 421.663 5.62L422.059 6.898C421.687 6.898 421.417 7.006 421.249 7.222C421.081 7.438 420.955 7.714 420.871 8.05C420.799 8.386 420.715 8.74 420.619 9.112C420.535 9.472 420.391 9.808 420.187 10.12L422.311 12.064L421.303 13.144L419.395 11.344C418.915 11.896 418.369 12.346 417.757 12.694C417.157 13.042 416.413 13.216 415.525 13.216ZM415.381 5.512C416.125 5.128 416.653 4.744 416.965 4.36C417.289 3.976 417.451 3.538 417.451 3.046C417.451 2.614 417.307 2.248 417.019 1.948C416.731 1.636 416.347 1.48 415.867 1.48C415.387 1.48 414.991 1.642 414.679 1.966C414.367 2.29 414.211 2.698 414.211 3.19C414.211 3.97 414.601 4.744 415.381 5.512ZM415.777 11.74C416.293 11.74 416.773 11.62 417.217 11.38C417.673 11.128 418.069 10.786 418.405 10.354L414.859 6.952C414.331 7.324 413.935 7.714 413.671 8.122C413.407 8.518 413.275 8.998 413.275 9.562C413.275 10.186 413.509 10.708 413.977 11.128C414.445 11.536 415.045 11.74 415.777 11.74ZM442.233 13V0.399999H449.703V1.876H443.943V5.728H448.749V7.132H443.943V13H442.233ZM462.365 13.216C461.429 13.216 460.595 13.048 459.863 12.712C459.131 12.364 458.507 11.896 457.991 11.308C457.487 10.708 457.097 10.012 456.821 9.22C456.557 8.428 456.425 7.582 456.425 6.682C456.425 5.446 456.659 4.342 457.127 3.37C457.607 2.386 458.291 1.612 459.179 1.048C460.067 0.472 461.129 0.184 462.365 0.184C463.289 0.184 464.117 0.352 464.849 0.688C465.593 1.024 466.223 1.492 466.739 2.092C467.255 2.692 467.645 3.382 467.909 4.162C468.185 4.942 468.323 5.782 468.323 6.682C468.323 7.582 468.185 8.428 467.909 9.22C467.645 10.012 467.255 10.708 466.739 11.308C466.223 11.896 465.599 12.364 464.867 12.712C464.135 13.048 463.301 13.216 462.365 13.216ZM462.365 11.74C463.289 11.74 464.063 11.518 464.687 11.074C465.311 10.63 465.779 10.03 466.091 9.274C466.415 8.506 466.577 7.642 466.577 6.682C466.577 6.034 466.481 5.41 466.289 4.81C466.097 4.21 465.821 3.676 465.461 3.208C465.101 2.728 464.657 2.35 464.129 2.074C463.613 1.798 463.025 1.66 462.365 1.66C461.489 1.66 460.733 1.882 460.097 2.326C459.473 2.77 458.993 3.37 458.657 4.126C458.333 4.882 458.171 5.734 458.171 6.682C458.171 7.33 458.261 7.96 458.441 8.572C458.633 9.172 458.909 9.712 459.269 10.192C459.629 10.672 460.067 11.05 460.583 11.326C461.111 11.602 461.705 11.74 462.365 11.74ZM484.183 13.216L482.617 9.796C482.221 8.944 481.723 8.338 481.123 7.978C480.523 7.618 479.755 7.438 478.819 7.438H478.549V13H476.839V0.436C477.475 0.376 478.081 0.334 478.657 0.309999C479.245 0.274 479.869 0.256 480.529 0.256C482.065 0.256 483.217 0.568 483.985 1.192C484.765 1.816 485.155 2.62 485.155 3.604C485.155 4.48 484.891 5.188 484.363 5.728C483.847 6.256 483.097 6.652 482.113 6.916C482.437 7.06 482.725 7.234 482.977 7.438C483.229 7.63 483.469 7.894 483.697 8.23C483.937 8.554 484.177 8.98 484.417 9.508L485.785 12.46L484.183 13.216ZM478.549 5.998H480.529C481.393 5.998 482.095 5.806 482.635 5.422C483.175 5.038 483.445 4.486 483.445 3.766C483.445 3.166 483.193 2.674 482.689 2.29C482.185 1.894 481.465 1.696 480.529 1.696C480.121 1.696 479.755 1.702 479.431 1.714C479.107 1.726 478.813 1.744 478.549 1.768V5.998ZM493.948 13V0.399999H501.508V1.876H495.658V5.71H500.698V7.15H495.658V11.524H501.508V13H493.948ZM513.064 13.216C512.189 13.216 511.391 13.102 510.671 12.874C509.951 12.634 509.345 12.322 508.853 11.938L509.717 10.498C510.149 10.858 510.635 11.152 511.175 11.38C511.715 11.608 512.345 11.722 513.064 11.722C513.929 11.722 514.613 11.542 515.117 11.182C515.621 10.822 515.873 10.336 515.873 9.724C515.873 9.376 515.801 9.07 515.657 8.806C515.513 8.53 515.231 8.266 514.811 8.014C514.403 7.75 513.797 7.468 512.993 7.168C512.129 6.832 511.439 6.496 510.923 6.16C510.407 5.812 510.035 5.422 509.807 4.99C509.591 4.546 509.483 4.024 509.483 3.424C509.483 2.824 509.645 2.284 509.969 1.804C510.305 1.312 510.791 0.921999 511.427 0.633999C512.075 0.334 512.855 0.184 513.767 0.184C514.511 0.184 515.177 0.261999 515.765 0.417999C516.365 0.561999 516.947 0.771999 517.511 1.048L516.881 2.506C516.473 2.266 515.993 2.068 515.441 1.912C514.901 1.744 514.331 1.66 513.731 1.66C512.939 1.66 512.315 1.816 511.859 2.128C511.403 2.44 511.175 2.842 511.175 3.334C511.175 3.646 511.241 3.922 511.373 4.162C511.505 4.402 511.763 4.636 512.147 4.864C512.543 5.092 513.131 5.35 513.911 5.638C514.847 5.986 515.585 6.352 516.125 6.736C516.677 7.12 517.067 7.54 517.295 7.996C517.523 8.44 517.637 8.95 517.637 9.526C517.637 10.306 517.439 10.972 517.043 11.524C516.659 12.076 516.119 12.496 515.423 12.784C514.739 13.072 513.953 13.216 513.064 13.216ZM528.593 13V1.912H524.723V0.399999H534.173V1.912H530.303V13H528.593Z" fill="#FBD784"/>
</svg>
